<mxfile host="app.diagrams.net" agent="Mozilla/5.0 (X11; Linux x86_64) AppleWebKit/537.36 (KHTML, like Gecko) Chrome/134.0.0.0 Safari/537.36" version="26.1.3">
  <diagram name="ページ1" id="yZnfbhVCDwkIrYhEQY3t">
    <mxGraphModel dx="573" dy="1473" grid="1" gridSize="10" guides="1" tooltips="1" connect="1" arrows="1" fold="1" page="1" pageScale="1" pageWidth="827" pageHeight="1169" math="1" shadow="0">
      <root>
        <mxCell id="0" />
        <mxCell id="1" parent="0" />
        <mxCell id="sGiAQNHqPji-i_EnNups-37" value="" style="shape=parallelogram;perimeter=parallelogramPerimeter;whiteSpace=wrap;html=1;fixedSize=1;rotation=90;size=40;flipH=1;" vertex="1" parent="1">
          <mxGeometry x="274.07" y="155.44" width="146.87" height="175" as="geometry" />
        </mxCell>
        <mxCell id="sGiAQNHqPji-i_EnNups-34" value="" style="shape=parallelogram;perimeter=parallelogramPerimeter;whiteSpace=wrap;html=1;fixedSize=1;size=82.86000000000013;rotation=50;" vertex="1" parent="1">
          <mxGeometry x="157.14" y="104.68" width="370" height="160" as="geometry" />
        </mxCell>
        <mxCell id="sGiAQNHqPji-i_EnNups-35" value="" style="shape=parallelogram;perimeter=parallelogramPerimeter;whiteSpace=wrap;html=1;fixedSize=1;rotation=90;size=40;flipH=1;" vertex="1" parent="1">
          <mxGeometry x="247.5" y="22.5" width="200" height="175" as="geometry" />
        </mxCell>
        <mxCell id="sGiAQNHqPji-i_EnNups-38" value="" style="endArrow=none;html=1;rounded=0;exitX=1;exitY=0.75;exitDx=0;exitDy=0;entryX=0.5;entryY=0;entryDx=0;entryDy=0;" edge="1" parent="1" source="sGiAQNHqPji-i_EnNups-35" target="sGiAQNHqPji-i_EnNups-35">
          <mxGeometry width="50" height="50" relative="1" as="geometry">
            <mxPoint x="200" y="290" as="sourcePoint" />
            <mxPoint x="440" y="110" as="targetPoint" />
          </mxGeometry>
        </mxCell>
        <mxCell id="sGiAQNHqPji-i_EnNups-39" value="" style="endArrow=none;dashed=1;html=1;rounded=0;entryX=1;entryY=0.75;entryDx=0;entryDy=0;exitX=0.467;exitY=0.996;exitDx=0;exitDy=0;exitPerimeter=0;" edge="1" parent="1" source="sGiAQNHqPji-i_EnNups-34" target="sGiAQNHqPji-i_EnNups-35">
          <mxGeometry width="50" height="50" relative="1" as="geometry">
            <mxPoint x="200" y="280" as="sourcePoint" />
            <mxPoint x="450" y="150" as="targetPoint" />
          </mxGeometry>
        </mxCell>
        <mxCell id="sGiAQNHqPji-i_EnNups-40" value="" style="endArrow=none;html=1;rounded=0;entryX=0.467;entryY=0.99;entryDx=0;entryDy=0;entryPerimeter=0;exitX=0.538;exitY=1.002;exitDx=0;exitDy=0;exitPerimeter=0;" edge="1" parent="1" source="sGiAQNHqPji-i_EnNups-37" target="sGiAQNHqPji-i_EnNups-34">
          <mxGeometry width="50" height="50" relative="1" as="geometry">
            <mxPoint x="400" y="200" as="sourcePoint" />
            <mxPoint x="450" y="150" as="targetPoint" />
          </mxGeometry>
        </mxCell>
        <mxCell id="sGiAQNHqPji-i_EnNups-41" value="" style="endArrow=none;html=1;rounded=0;exitX=0.118;exitY=0.402;exitDx=0;exitDy=0;exitPerimeter=0;curved=1;" edge="1" parent="1" source="sGiAQNHqPji-i_EnNups-35">
          <mxGeometry width="50" height="50" relative="1" as="geometry">
            <mxPoint x="360" y="200" as="sourcePoint" />
            <mxPoint x="350" y="170" as="targetPoint" />
            <Array as="points">
              <mxPoint x="365" y="180" />
              <mxPoint x="360" y="170" />
            </Array>
          </mxGeometry>
        </mxCell>
        <mxCell id="sGiAQNHqPji-i_EnNups-42" value="" style="endArrow=classic;html=1;rounded=0;strokeWidth=2;exitX=0.75;exitY=0;exitDx=0;exitDy=0;entryX=0.5;entryY=0;entryDx=0;entryDy=0;" edge="1" parent="1">
          <mxGeometry width="50" height="50" relative="1" as="geometry">
            <mxPoint x="310" y="197.5" as="sourcePoint" />
            <mxPoint x="310" y="147.5" as="targetPoint" />
          </mxGeometry>
        </mxCell>
        <mxCell id="sGiAQNHqPji-i_EnNups-43" value="" style="endArrow=classic;html=1;rounded=0;strokeWidth=2;" edge="1" parent="1">
          <mxGeometry width="50" height="50" relative="1" as="geometry">
            <mxPoint x="310" y="200" as="sourcePoint" />
            <mxPoint x="380" y="150" as="targetPoint" />
          </mxGeometry>
        </mxCell>
        <mxCell id="sGiAQNHqPji-i_EnNups-44" value="$$\mathbf{a}$$" style="text;strokeColor=none;align=center;fillColor=none;html=1;verticalAlign=middle;whiteSpace=wrap;rounded=0;fontSize=16;" vertex="1" parent="1">
          <mxGeometry x="270" y="155.44" width="40" height="40" as="geometry" />
        </mxCell>
        <mxCell id="sGiAQNHqPji-i_EnNups-45" value="$$\mathbf{b}$$" style="text;strokeColor=none;align=center;fillColor=none;html=1;verticalAlign=middle;whiteSpace=wrap;rounded=0;fontSize=16;" vertex="1" parent="1">
          <mxGeometry x="340" y="130" width="40" height="40" as="geometry" />
        </mxCell>
        <mxCell id="sGiAQNHqPji-i_EnNups-46" value="$$(S&#39;)$$" style="text;strokeColor=none;align=center;fillColor=none;html=1;verticalAlign=middle;whiteSpace=wrap;rounded=0;" vertex="1" parent="1">
          <mxGeometry x="260" y="50" width="40" height="40" as="geometry" />
        </mxCell>
        <mxCell id="sGiAQNHqPji-i_EnNups-47" value="$$(S)$$" style="text;strokeColor=none;align=center;fillColor=none;html=1;verticalAlign=middle;whiteSpace=wrap;rounded=0;fontSize=16;" vertex="1" parent="1">
          <mxGeometry x="460" y="240" width="40" height="40" as="geometry" />
        </mxCell>
        <mxCell id="sGiAQNHqPji-i_EnNups-48" value="$$(l)$$" style="text;strokeColor=none;align=center;fillColor=none;html=1;verticalAlign=middle;whiteSpace=wrap;rounded=0;fontSize=16;" vertex="1" parent="1">
          <mxGeometry x="400" y="80" width="40" height="39.56" as="geometry" />
        </mxCell>
        <mxCell id="sGiAQNHqPji-i_EnNups-49" value="$$\theta$$" style="text;strokeColor=none;align=center;fillColor=none;html=1;verticalAlign=middle;whiteSpace=wrap;rounded=0;fontSize=16;" vertex="1" parent="1">
          <mxGeometry x="350" y="155" width="40" height="40.44" as="geometry" />
        </mxCell>
        <mxCell id="sGiAQNHqPji-i_EnNups-50" value="$$(l&#39;)$$" style="text;strokeColor=none;align=center;fillColor=none;html=1;verticalAlign=middle;whiteSpace=wrap;rounded=0;fontSize=16;" vertex="1" parent="1">
          <mxGeometry x="407.5" y="164.46" width="40" height="40.44" as="geometry" />
        </mxCell>
      </root>
    </mxGraphModel>
  </diagram>
</mxfile>
